<?xml version="1.0" encoding="UTF-8"?>
<svg id="Layer_1" data-name="Layer 1" xmlns="http://www.w3.org/2000/svg" viewBox="0 0 594.28 565.79">
  <defs>
    <style>
      .cls-1 {
        fill: #fff;
      }
    </style>
  </defs>
  <path d="m118.89,565.27l178.25-93.8,178.25,93.7c2.45,1.28,5.47.33,6.75-2.11.5-.96.68-2.06.5-3.14l-34-198.5,144.15-140.55c1.97-1.94,1.99-5.11.05-7.07-.75-.76-1.73-1.27-2.8-1.43l-199.3-29L301.64,2.82c-1.2-2.49-4.19-3.52-6.68-2.32-1.01.49-1.83,1.31-2.32,2.32l-89.1,180.6L4.24,212.42c-2.73.42-4.6,2.97-4.18,5.7.16,1.06.66,2.04,1.43,2.8l144.15,140.55-34.05,198.5c-.45,2.72,1.39,5.3,4.11,5.75,1.07.18,2.17,0,3.14-.5l.05.05Z"/>
  <path class="cls-1" d="m131.71,544.96l165.43-87.05,165.43,86.96c2.27,1.19,5.07.31,6.26-1.96.47-.89.63-1.92.47-2.91l-31.55-184.22,133.78-130.44c1.82-1.8,1.84-4.74.04-6.56-.7-.71-1.61-1.17-2.59-1.33l-184.97-26.91L301.31,22.96c-1.12-2.31-3.89-3.27-6.2-2.15-.94.46-1.7,1.21-2.15,2.15l-82.69,167.61-184.97,26.91c-2.53.39-4.27,2.76-3.88,5.29.15.98.62,1.89,1.33,2.59l133.78,130.44-31.6,184.22c-.42,2.53,1.29,4.92,3.82,5.34,1,.17,2.02,0,2.91-.47l.05.05Z"/>
</svg>