<?xml version="1.0" encoding="utf-8"?>
<!-- Generator: Adobe Illustrator 27.2.0, SVG Export Plug-In . SVG Version: 6.00 Build 0)  -->
<svg version="1.1" id="Layer_1" xmlns="http://www.w3.org/2000/svg" xmlns:xlink="http://www.w3.org/1999/xlink" x="0px" y="0px"
	 viewBox="0 0 800 800" style="enable-background:new 0 0 800 800;" xml:space="preserve">
<style type="text/css">
	.st0{fill:#FFFFFF;}
</style>
<path d="M221.7,682.4L400,588.6l178.2,93.7c2.5,1.3,5.5,0.3,6.8-2.1c0.5-1,0.7-2.1,0.5-3.1l-34-198.5L695.7,338c2-1.9,2-5.1,0-7.1
	c-0.8-0.8-1.7-1.3-2.8-1.4l-199.3-29l-89.1-180.6c-1.2-2.5-4.2-3.5-6.7-2.3c-1,0.5-1.8,1.3-2.3,2.3l-89.1,180.6l-199.3,29
	c-2.7,0.4-4.6,3-4.2,5.7c0.2,1.1,0.7,2,1.4,2.8l144.1,140.5l-34.1,198.5c-0.4,2.7,1.4,5.3,4.1,5.8
	C219.6,683,220.7,682.8,221.7,682.4L221.7,682.4L221.7,682.4z"/>
<path class="st0" d="M234.6,662.1L400,575l165.4,87c2.3,1.2,5.1,0.3,6.3-2c0.5-0.9,0.6-1.9,0.5-2.9l-31.6-184.2l133.8-130.4
	c1.8-1.8,1.8-4.7,0-6.6c-0.7-0.7-1.6-1.2-2.6-1.3l-185-26.9l-82.7-167.6c-1.1-2.3-3.9-3.3-6.2-2.1c-0.9,0.5-1.7,1.2-2.1,2.1
	l-82.7,167.6l-185,26.9c-2.5,0.4-4.3,2.8-3.9,5.3c0.2,1,0.6,1.9,1.3,2.6l133.8,130.4l-31.6,184.2c-0.4,2.5,1.3,4.9,3.8,5.3
	C232.6,662.6,233.6,662.5,234.6,662.1L234.6,662.1L234.6,662.1z"/>
</svg>
